<mxfile host="app.diagrams.net" modified="2021-03-17T11:17:27.966Z" agent="5.0 (X11; Linux x86_64) AppleWebKit/537.36 (KHTML, like Gecko) Chrome/87.0.4280.141 Safari/537.36" etag="GtK-vCVz51LCXmujpK0z" version="14.4.8" type="github">
  <diagram id="FdH01JQC1spgoEAyih00" name="Page-1">
    <mxGraphModel dx="1422" dy="833" grid="1" gridSize="10" guides="1" tooltips="1" connect="1" arrows="1" fold="1" page="1" pageScale="1" pageWidth="2000" pageHeight="2000" math="0" shadow="0">
      <root>
        <mxCell id="0" />
        <mxCell id="1" parent="0" />
        <mxCell id="WawIfko5WMgao0eIUD8T-9" value="1" style="edgeStyle=none;orthogonalLoop=1;jettySize=auto;html=1;endArrow=none;fontSize=15;" edge="1" parent="1" source="WawIfko5WMgao0eIUD8T-1" target="WawIfko5WMgao0eIUD8T-8">
          <mxGeometry relative="1" as="geometry" />
        </mxCell>
        <mxCell id="WawIfko5WMgao0eIUD8T-1" value="users" style="rounded=0;whiteSpace=wrap;html=1;fontSize=15;" vertex="1" parent="1">
          <mxGeometry x="100" y="50" width="120" height="60" as="geometry" />
        </mxCell>
        <mxCell id="WawIfko5WMgao0eIUD8T-2" value="userProfile" style="shape=ext;margin=3;double=1;whiteSpace=wrap;html=1;align=center;fontSize=15;" vertex="1" parent="1">
          <mxGeometry x="420" y="50" width="120" height="60" as="geometry" />
        </mxCell>
        <mxCell id="WawIfko5WMgao0eIUD8T-6" value="1" style="edgeStyle=none;orthogonalLoop=1;jettySize=auto;html=1;endArrow=none;shape=link;fontSize=15;" edge="1" parent="1" source="WawIfko5WMgao0eIUD8T-3" target="WawIfko5WMgao0eIUD8T-2">
          <mxGeometry relative="1" as="geometry" />
        </mxCell>
        <mxCell id="WawIfko5WMgao0eIUD8T-3" value="have" style="rhombus;whiteSpace=wrap;html=1;rounded=0;fontSize=15;" vertex="1" parent="1">
          <mxGeometry x="280" y="40" width="80" height="80" as="geometry" />
        </mxCell>
        <mxCell id="WawIfko5WMgao0eIUD8T-5" value="1" style="endArrow=none;html=1;shape=link;fontSize=15;" edge="1" parent="1" source="WawIfko5WMgao0eIUD8T-1" target="WawIfko5WMgao0eIUD8T-3">
          <mxGeometry width="50" height="50" relative="1" as="geometry">
            <mxPoint x="550" y="350" as="sourcePoint" />
            <mxPoint x="600" y="300" as="targetPoint" />
          </mxGeometry>
        </mxCell>
        <mxCell id="WawIfko5WMgao0eIUD8T-7" value="posts" style="rounded=0;whiteSpace=wrap;html=1;fontSize=15;" vertex="1" parent="1">
          <mxGeometry x="100" y="290" width="120" height="60" as="geometry" />
        </mxCell>
        <mxCell id="WawIfko5WMgao0eIUD8T-10" value="m" style="edgeStyle=none;orthogonalLoop=1;jettySize=auto;html=1;endArrow=none;fontSize=15;" edge="1" parent="1" source="WawIfko5WMgao0eIUD8T-8" target="WawIfko5WMgao0eIUD8T-7">
          <mxGeometry relative="1" as="geometry" />
        </mxCell>
        <mxCell id="WawIfko5WMgao0eIUD8T-8" value="creates" style="rhombus;whiteSpace=wrap;html=1;rounded=0;fontSize=15;" vertex="1" parent="1">
          <mxGeometry x="120" y="160" width="80" height="80" as="geometry" />
        </mxCell>
      </root>
    </mxGraphModel>
  </diagram>
</mxfile>
